<!DOCTYPE svg PUBLIC "-//W3C//DTD SVG 20010904//EN" "http://www.w3.org/TR/2001/REC-SVG-20010904/DTD/svg10.dtd">
<svg version="1.0" xmlns="http://www.w3.org/2000/svg" width="1600px" height="1600px" viewBox="0 0 16000 16000" preserveAspectRatio="xMidYMid meet">
<g id="layer101" fill="#000000" stroke="none">
 <path d="M1760 11515 l0 -2865 2860 0 2860 0 0 2865 0 2865 -2860 0 -2860 0 0 -2865z m4560 -5 l0 -1700 -1700 0 -1700 0 0 1700 0 1700 1700 0 1700 0 0 -1700z"/>
 <path d="M4040 11515 l0 -575 580 0 580 0 0 575 0 575 -580 0 -580 0 0 -575z"/>
 <path d="M8610 11515 l0 -2865 1725 0 1725 0 0 575 0 575 560 0 560 0 0 -575 0 -575 580 0 580 0 0 1720 0 1720 -1720 0 -1720 0 0 -565 0 -565 -565 0 -565 0 0 1710 0 1710 -580 0 -580 0 0 -2865z"/>
 <path d="M10900 13800 l0 -580 580 0 580 0 0 580 0 580 -580 0 -580 0 0 -580z"/>
 <path d="M13180 13800 l0 -580 580 0 580 0 0 580 0 580 -580 0 -580 0 0 -580z"/>
 <path d="M1760 4660 l0 -2860 2860 0 2860 0 0 2860 0 2860 -2860 0 -2860 0 0 -2860z m4560 0 l0 -1700 -1700 0 -1700 0 0 1700 0 1700 1700 0 1700 0 0 -1700z"/>
 <path d="M4040 4660 l0 -580 580 0 580 0 0 580 0 580 -580 0 -580 0 0 -580z"/>
 <path d="M8610 4660 l0 -2860 2865 0 2865 0 0 2860 0 2860 -2865 0 -2865 0 0 -2860z m4570 0 l0 -1700 -1705 0 -1705 0 0 1700 0 1700 1705 0 1705 0 0 -1700z"/>
 <path d="M10900 4660 l0 -580 580 0 580 0 0 580 0 580 -580 0 -580 0 0 -580z"/>
 </g>

</svg>